<svg viewBox="0 0 89 27" fill="none" xmlns="http://www.w3.org/2000/svg">
<path d="M62.01 12.87C61.46 12.87 61.02 13.32 61.02 13.86C61.02 14.4 61.46 14.85 62.01 14.85C62.56 14.85 63 14.41 63 13.86C63 13.31 62.56 12.87 62.01 12.87ZM27.69 13.81C27.69 13.81 28.18 12.16 28.26 11.9C28.46 11.23 28.76 10.17 28.76 10.17H28.81C28.81 10.17 29.08 11.27 29.26 11.89C29.33 12.13 29.81 13.81 29.81 13.81H27.7H27.69ZM30.7 16.81H32.49L29.79 8.56C29.5 8.46 29.15 8.4 28.78 8.4C28.37 8.4 28.23 8.45 27.9 8.56L25.04 16.81H26.75C26.75 16.81 26.98 16.09 27.26 15.19H30.22C30.49 16.09 30.7 16.81 30.7 16.81ZM88.53 16.81C88.53 16.81 87.68 15.01 87.48 14.6C87.25 14.14 87.03 13.81 86.55 13.7V13.67C86.87 13.61 87.12 13.42 87.4 12.82C87.67 12.24 87.74 12.12 87.9 11.98C88.05 11.84 88.26 11.9 88.26 11.9L88.34 10.82C88.12 10.79 87.87 10.79 87.62 10.8C87.2 10.83 86.98 10.95 86.78 11.16C86.62 11.32 86.51 11.56 86.37 11.84C86.22 12.13 86.11 12.38 85.96 12.68C85.8 12.99 85.74 13.13 85.33 13.13H85.07V10.9H83.51V16.8H85.07V14.39H85.28C85.72 14.39 85.8 14.5 86.04 14.96C86.31 15.52 86.84 16.8 86.84 16.8H88.53V16.81ZM82.16 16.81V10.91H80.61V13.14H78.85V10.91H77.3V16.81H78.85V14.4H80.61V16.81H82.16ZM39.52 10.85V16.5C40.25 16.81 41.06 16.96 41.78 16.96C43.43 16.96 44.3 16.11 44.3 14.7C44.3 13.43 43.52 12.65 42.06 12.65C41.69 12.65 41.47 12.7 41.07 12.8V10.87H39.52V10.85ZM42.7 14.76C42.7 15.34 42.5 15.74 41.75 15.74C41.5 15.74 41.39 15.74 41.07 15.65V13.94C41.47 13.86 41.51 13.85 41.75 13.85C42.46 13.85 42.7 14.2 42.7 14.76ZM76.49 16.24C76.08 15.62 75.97 15.25 75.97 14.47V12.88C75.97 12.02 75.87 11.71 75.65 11.39C75.33 10.95 74.81 10.76 73.84 10.76C73.16 10.76 72.48 10.83 71.84 11L72.07 12.14C72.51 12.08 72.96 12.02 73.29 12.02C74.32 12.02 74.43 12.18 74.43 12.94V13.23C74.2 13.17 73.95 13.12 73.65 13.12C72.1 13.12 71.28 13.88 71.28 15.13C71.28 16.3 72.16 16.94 73.23 16.94C73.62 16.94 74.04 16.86 74.37 16.73C74.57 16.64 74.66 16.59 74.91 16.42C75.07 16.65 75.38 16.88 75.5 16.92L76.5 16.24H76.49ZM74.52 15.56C74.18 15.68 73.96 15.7 73.69 15.7C73.13 15.7 72.82 15.48 72.82 14.91C72.82 14.34 73.22 14.12 73.98 14.12C74.17 14.12 74.36 14.15 74.44 14.18V14.6C74.44 15.06 74.47 15.36 74.52 15.55M59.37 16.23C58.96 15.61 58.86 15.24 58.86 14.46V12.87C58.86 12.01 58.76 11.7 58.53 11.38C58.21 10.94 57.69 10.75 56.72 10.75C56.03 10.75 55.36 10.82 54.73 10.99L54.96 12.13C55.39 12.07 55.85 12.01 56.18 12.01C57.21 12.01 57.32 12.17 57.32 12.93V13.22C57.09 13.16 56.84 13.11 56.54 13.11C54.98 13.11 54.17 13.87 54.17 15.12C54.17 16.29 55.04 16.93 56.11 16.93C56.51 16.93 56.92 16.85 57.25 16.72C57.45 16.63 57.53 16.58 57.79 16.41C57.94 16.64 58.25 16.87 58.38 16.91L59.37 16.23ZM57.4 15.55C57.06 15.67 56.83 15.69 56.57 15.69C56.02 15.69 55.7 15.47 55.7 14.9C55.7 14.33 56.1 14.11 56.87 14.11C57.05 14.11 57.24 14.14 57.32 14.17V14.59C57.32 15.05 57.35 15.35 57.4 15.54M38.29 16.78V11.09C37.44 10.83 36.78 10.73 35.93 10.73C35.08 10.73 34.43 10.84 33.58 11.09V14C33.58 14.79 33.57 15.03 33.48 15.29C33.39 15.51 33.28 15.78 32.96 15.99L33.38 16.9C34.63 16.55 35.1 16.01 35.1 14.28V12.14C35.51 12.08 35.59 12.06 35.92 12.06C36.25 12.06 36.32 12.08 36.73 12.14V16.77H38.28L38.29 16.78ZM50.03 18.71V16.59C50.23 16.71 50.62 16.88 51.28 16.88C52.59 16.88 53.56 15.79 53.56 13.8C53.56 11.64 52.6 10.73 51.02 10.73C50.62 10.73 50.36 10.77 50.03 10.93V8.39H48.49V10.93C48.17 10.77 47.9 10.73 47.5 10.73C45.92 10.73 44.96 11.69 44.96 13.84C44.96 15.84 45.83 16.89 47.24 16.89C47.9 16.89 48.29 16.72 48.49 16.6V18.72H50.03V18.71ZM46.55 13.83C46.55 12.64 46.91 12.02 47.61 12.02C47.91 12.02 48.12 12.02 48.48 12.19V15.46C48.15 15.57 47.99 15.58 47.68 15.58C46.87 15.58 46.54 14.92 46.54 13.83M51.96 13.8C51.96 14.88 51.53 15.58 50.82 15.58C50.52 15.58 50.36 15.57 50.02 15.46V12.19C50.39 12.01 50.59 12.02 50.89 12.02C51.6 12.02 51.96 12.61 51.96 13.8ZM70.68 14.22C70.68 12.76 69.83 11.75 68.03 11.75C67.59 11.75 67.28 11.79 66.8 11.9V9.79C67.09 9.75 67.6 9.72 68.16 9.72C68.69 9.72 69.36 9.75 69.95 9.82L69.99 8.6C69.32 8.45 68.35 8.36 67.6 8.36C66.85 8.36 65.71 8.54 65.16 8.69V16.47C66.02 16.79 66.85 16.93 67.71 16.93C69.67 16.93 70.69 15.89 70.69 14.22M69.04 14.33C69.04 15.12 68.6 15.64 67.8 15.64C67.48 15.64 67.22 15.64 66.81 15.53V13.15C66.99 13.12 67.37 13.06 67.8 13.07C68.62 13.1 69.04 13.48 69.04 14.33ZM8.39999 4.1L6.08 11.07H10.76L8.42999 4.1H8.39999ZM0.260002 22.66C0.120002 22.66 0 22.78 0 22.93V25.89C0 26.04 0.120002 26.16 0.260002 26.16H16.56C16.7 26.16 16.82 26.04 16.82 25.89V22.93C16.82 22.78 16.7 22.66 16.56 22.66H0.260002ZM8.41 0C10.19 0 10.75 1.28 11.22 2.56C11.42 3.1 16.05 15.79 16.19 16.17C16.23 16.27 16.2 16.45 16.04 16.51C15.88 16.58 13.47 17.51 13.34 17.56C13.21 17.61 13.06 17.54 13.01 17.4C12.96 17.27 11.96 14.51 11.85 14.2H4.98C4.87 14.51 3.86 17.28 3.81 17.4C3.77 17.53 3.62 17.62 3.48 17.56C3.34 17.5 0.919999 16.57 0.779999 16.51C0.639999 16.46 0.579997 16.3 0.629997 16.17C0.799997 15.7 5.36001 3.21 5.60001 2.56C6.05001 1.3 6.63 0 8.42 0" fill="#EE3423"></path>
</svg>
